<?xml version="1.0" encoding="UTF-8" standalone="no"?>
<svg
   width="210"
   height="210"
   viewBox="0 0 210 210"
   fill="none"
   version="1.1"
   id="svg21"
   xmlns="http://www.w3.org/2000/svg"
   xmlns:svg="http://www.w3.org/2000/svg">
  <path
     d="M 198.892,23.323 V 148.171 H 11.2063 V 23.323 Z"
     fill="url(#paint0_linear_30_133)"
     id="path2"
     style="fill:url(#paint0_linear_30_133)" />
  <path
     d="M 198.892,23.323 V 148.171 H 11.2063 V 23.323 Z"
     fill="#ffffff"
     id="path3" />
  <path
     d="M 198.892,23.323 V 148.171 H 11.2063 V 23.323 Z"
     stroke="#000000"
     stroke-width="4"
     id="path4" />
  <path
     d="M 49,200.5 73.5,155"
     stroke="#ffffff"
     stroke-width="17"
     stroke-linecap="round"
     id="path5" />
  <path
     d="M 136.5,155 161,200.5"
     stroke="#ffffff"
     stroke-width="17"
     stroke-linecap="round"
     id="path6" />
  <path
     d="m 60,182.5 h 90"
     stroke="#ffffff"
     stroke-width="17"
     stroke-linecap="round"
     id="path7" />
  <path
     d="m 63,189.5 c 0,0 -7,13 -8.5,15.5 -1.5,2.5 -5.941,3.327 -9,1.5 -3.022,-1.805 -4.5,-6 -3,-8.5 C 44,195.5 64,158 64,158 h 16 l -9.5,17.5 h 69 L 130,158 h 16 l 21.5,40 c 1.142,1.827 0.556,6.19 -2,8 -3.039,2.152 -8.371,1.444 -10,-1 L 147,189.5 Z"
     stroke="#000000"
     stroke-width="4"
     id="path8" />
  <path
     d="M 7.0244,135 H 202.976 c 2.411,0 5.024,2.565 5.024,6.539 v 8.922 c 0,3.974 -2.613,6.539 -5.024,6.539 H 7.0244 C 4.6129,157 2,154.435 2,150.461 v -8.922 C 2,137.565 4.6129,135 7.0244,135 Z"
     fill="#ffffff"
     stroke="#000000"
     stroke-width="4"
     id="path9" />
  <path
     d="M 7.0244,4 H 202.976 C 205.387,4.0001 208,6.5646 208,10.5391 V 19.461 C 208,23.435 205.387,26 202.976,26 H 7.0244 C 4.6129,26 2,23.435 2,19.461 V 10.5391 C 2,6.5646 4.6129,4.0001 7.0244,4 Z"
     fill="#ffffff"
     stroke="#000000"
     stroke-width="4"
     id="path10" />
  <path
     d="m 107.99441,127.99961 c -12.68796,0.0335 -24.87194,-4.96724 -33.8789,-13.9038 C 65.10855,105.15926 60.01392,93.01439 59.94799,80.32643 60.14132,67.70998 65.28959,55.67575 74.27978,46.823 83.26998,37.96914 95.38244,33.00637 108,33.00637 c 12.61756,0 24.73002,4.96277 33.72022,13.81663 8.99019,8.85275 14.13846,20.88698 14.33179,33.50343 -0.0659,12.6902 -5.1628,24.83618 -14.17199,33.77385 -9.00919,8.93656 -21.19541,13.93509 -33.88561,13.89933 z m 0,-88.99903 C 96.98603,38.96148 86.41236,43.29062 78.59329,51.03817 70.7731,58.78572 66.34561,69.31916 66.28304,80.32643 c 0.18103,10.9458 4.65433,21.38091 12.45887,29.05693 7.80343,7.67715 18.31117,11.97836 29.25809,11.97836 10.94692,0 21.45466,-4.30121 29.25809,-11.97836 7.80342,-7.67602 12.27784,-18.11113 12.45887,-29.05693 C 149.65106,69.31805 145.22131,58.7846 137.40001,51.03705 129.5787,43.2895 119.00279,38.96147 107.99441,39.00058 Z"
     fill="#8dc63f"
     id="path12"
     style="stroke-width:1.11749" />
  <path
     d="m 113.36841,88.75453 c 2.87419,7.32625 6.17525,14.47706 9.88754,21.41555 0.33525,0.60679 0.79342,1.13648 1.34658,1.55442 0.55204,0.41906 1.18677,0.71631 1.86173,0.87388 0.67497,0.15756 1.37563,0.17209 2.05618,0.0425 0.68055,-0.12963 1.32646,-0.40118 1.89638,-0.79565 3.93132,-2.75126 7.32067,-6.20206 10.00041,-10.18255 0.41794,-0.63474 0.68166,-1.35887 0.76883,-2.11429 0.0883,-0.75542 -0.003,-1.5209 -0.26485,-2.23498 -0.26149,-0.71407 -0.68725,-1.35663 -1.24264,-1.87626 -0.55428,-0.51964 -1.22365,-0.90182 -1.95337,-1.11637 -7.37319,-2.29086 -14.6067,-5.00635 -21.66476,-8.1342 -0.3643,-0.16092 -0.76771,-0.21009 -1.15995,-0.14192 -0.39224,0.0682 -0.75542,0.25143 -1.04373,0.52633 -0.28831,0.2749 -0.48835,0.62915 -0.57551,1.01803 -0.0872,0.38889 -0.057,0.79454 0.0872,1.16555 z"
     fill="#f3bd48"
     id="path13"
     style="stroke-width:1.11749" />
  <path
     d="m 117.24834,82.73685 c 7.40671,3.27089 15.01345,6.07131 22.77329,8.38228 0.66379,0.18997 1.36111,0.23914 2.04501,0.14416 0.6839,-0.095 1.34098,-0.33078 1.92878,-0.69396 0.5878,-0.36319 1.09291,-0.84482 1.48403,-1.41474 0.39112,-0.56881 0.65932,-1.2136 0.78671,-1.89303 0.41459,-2.28862 0.62244,-4.60964 0.62244,-6.93513 0.001,-2.55235 -0.25255,-5.0991 -0.75766,-7.60228 -0.15309,-0.75095 -0.47828,-1.45609 -0.95098,-2.06065 -0.4727,-0.60344 -1.07837,-1.08955 -1.77122,-1.41809 -0.69284,-0.32966 -1.45162,-0.49281 -2.21821,-0.47828 -0.7666,0.0145 -1.51979,0.20785 -2.1981,0.56321 -7.04689,3.62848 -14.28709,6.86808 -21.6871,9.70651 -0.37324,0.14192 -0.69396,0.39223 -0.92305,0.71854 -0.22797,0.32631 -0.35424,0.71408 -0.35983,1.1119 -0.007,0.39894 0.10728,0.79007 0.32631,1.12308 0.21791,0.33301 0.53192,0.59338 0.89958,0.74648 z"
     fill="#f09f53"
     id="path14"
     style="stroke-width:1.11749" />
  <path
     d="m 109.80474,89.71668 c -0.15197,-0.36877 -0.41011,-0.68278 -0.74201,-0.90516 -0.33078,-0.22127 -0.72078,-0.33972 -1.11972,-0.33972 -0.39783,0 -0.78783,0.11845 -1.11861,0.33972 -0.33189,0.22238 -0.59003,0.53639 -0.74201,0.90516 -3.29212,7.31173 -6.11043,14.82796 -8.43927,22.50175 -0.19333,0.66603 -0.2425,1.36557 -0.14528,2.05283 0.0983,0.68614 0.34084,1.34434 0.71184,1.93102 0.37101,0.58556 0.8627,1.0862 1.44156,1.46838 0.57886,0.38218 1.23259,0.63697 1.91761,0.74648 2.12435,0.34642 4.27328,0.51963 6.42556,0.52075 2.71215,-0.0156 5.41535,-0.31513 8.06603,-0.89399 0.7476,-0.14527 1.45162,-0.46376 2.05507,-0.92863 0.60344,-0.466 1.08843,-1.06609 1.41809,-1.75334 0.32966,-0.68726 0.49505,-1.44156 0.48052,-2.20369 -0.0134,-0.76213 -0.20562,-1.50973 -0.55986,-2.18469 -3.6039,-6.90384 -6.82562,-13.9999 -9.64952,-21.25687 z"
     fill="#ecdc13"
     id="path15"
     style="stroke-width:1.11749" />
  <path
     d="m 106.54615,71.25354 c 0.14639,0.371 0.40006,0.68949 0.72748,0.91634 0.32854,0.22685 0.71631,0.35089 1.11526,0.35648 0.39782,0.007 0.78894,-0.10616 1.12419,-0.32296 0.33413,-0.21567 0.59786,-0.52745 0.75542,-0.89287 3.33012,-7.38995 6.17189,-14.98999 8.50744,-22.75095 0.18886,-0.65932 0.23914,-1.35216 0.14416,-2.03271 -0.095,-0.67943 -0.33078,-1.33205 -0.69284,-1.91538 -0.36319,-0.58333 -0.84371,-1.08396 -1.41139,-1.46949 -0.5688,-0.38554 -1.21136,-0.64815 -1.88632,-0.76995 -4.89349,-0.86047 -9.90542,-0.79454 -14.77544,0.1922 -0.74983,0.14416 -1.45497,0.46264 -2.05841,0.92975 -0.60456,0.466 -1.09179,1.06832 -1.42145,1.7567 -0.32966,0.68837 -0.49393,1.44379 -0.4794,2.20815 0.0156,0.76325 0.20897,1.51197 0.56545,2.18693 3.66089,7.01559 6.92731,14.22898 9.78585,21.60776 z"
     fill="#a95a96"
     id="path16"
     style="stroke-width:1.11749" />
  <path
     d="m 77.95856,66.93221 c 7.7062,2.36013 15.26154,5.18626 22.62579,8.46162 0.36541,0.1598 0.76883,0.20786 1.16107,0.13745 0.39112,-0.0704 0.7543,-0.25478 1.0415,-0.5308 0.28607,-0.27602 0.48499,-0.63138 0.56992,-1.02027 0.086,-0.38889 0.0536,-0.79454 -0.0916,-1.16554 -2.98705,-7.68273 -6.43673,-15.17773 -10.32895,-22.44476 -0.33524,-0.60568 -0.79565,-1.13425 -1.3488,-1.55107 -0.55316,-0.41683 -1.18678,-0.71408 -1.86174,-0.87053 -0.67496,-0.15644 -1.37563,-0.16985 -2.05618,-0.0391 -0.67943,0.13075 -1.32534,0.4023 -1.89414,0.79789 -4.19952,2.90882 -7.78219,6.61888 -10.54351,10.91674 -0.40788,0.63697 -0.66267,1.36111 -0.74313,2.11317 -0.0805,0.75207 0.0156,1.51308 0.27938,2.22269 0.26484,0.70849 0.6906,1.34657 1.24488,1.86285 0.55315,0.51517 1.21918,0.89511 1.94555,1.10967 z"
     fill="#2b8ec1"
     id="path17"
     style="stroke-width:1.11749" />
  <path
     d="m 102.6774,88.29077 c 0.15645,-0.3643 0.20115,-0.76772 0.12851,-1.15772 -0.0726,-0.39 -0.25925,-0.74984 -0.53751,-1.03368 -0.27714,-0.28384 -0.6325,-0.47828 -1.02138,-0.55986 -0.38889,-0.0805 -0.7923,-0.0447 -1.15996,0.10393 -7.54751,2.88982 -14.91735,6.22106 -22.07263,9.97805 -0.61685,0.32743 -1.1566,0.78224 -1.58236,1.33652 -0.42577,0.55316 -0.72637,1.19236 -0.88282,1.87291 -0.15757,0.68055 -0.16539,1.38569 -0.0246,2.07071 0.13968,0.6839 0.42576,1.32869 0.83811,1.89302 2.88424,3.99391 6.50043,7.40225 10.65749,10.04622 0.6392,0.40565 1.36334,0.65932 2.11541,0.7409 0.75318,0.0805 1.51419,-0.0123 2.22603,-0.27267 0.71073,-0.26037 1.35216,-0.68055 1.87403,-1.22924 0.52299,-0.54868 0.91187,-1.20912 1.1376,-1.93213 2.33556,-7.44248 5.10804,-14.7408 8.30406,-21.85696 z"
     fill="#add14c"
     id="path18"
     style="stroke-width:1.11749" />
  <path
     d="m 113.56062,72.91636 c -0.15645,0.36654 -0.20003,0.77107 -0.12627,1.16219 0.0726,0.39112 0.26037,0.75207 0.53974,1.03591 0.27826,0.28496 0.63474,0.48052 1.02362,0.5621 0.39001,0.0827 0.79566,0.0469 1.16443,-0.10169 7.58216,-2.90883 14.98664,-6.26353 22.1732,-10.04511 0.6068,-0.32407 1.13649,-0.7733 1.55667,-1.3164 0.41905,-0.54422 0.71966,-1.17001 0.87946,-1.83827 0.16092,-0.66826 0.17768,-1.36222 0.0503,-2.03718 -0.1274,-0.67496 -0.39671,-1.31528 -0.78895,-1.87962 -2.85295,-4.09671 -6.46691,-7.60786 -10.6452,-10.34012 -0.63697,-0.4157 -1.3611,-0.67831 -2.11652,-0.76883 -0.75542,-0.0894 -1.5209,-0.003 -2.23721,0.25255 -0.71631,0.25479 -1.36334,0.67273 -1.89191,1.21918 -0.52857,0.54645 -0.92305,1.20912 -1.15325,1.93326 -2.36349,7.54975 -5.17732,14.95088 -8.4281,22.16203 z"
     fill="#e74253"
     id="path19"
     style="stroke-width:1.11749" />
  <path
     d="M 98.74049,78.58426 C 91.3036,75.29102 83.66333,72.48054 75.8655,70.16734 c -0.66267,-0.1855 -1.35775,-0.2302 -2.03942,-0.13187 -0.68167,0.0995 -1.33428,0.33972 -1.91761,0.70626 -0.58221,0.36653 -1.08284,0.85152 -1.46726,1.42256 -0.3833,0.57104 -0.64479,1.21695 -0.76436,1.89526 -0.34195,2.07182 -0.51181,4.16712 -0.50846,6.26688 -0.002,2.81607 0.30507,5.6232 0.91634,8.37222 0.17433,0.73196 0.51516,1.41362 0.99457,1.9936 0.47828,0.58109 1.08396,1.04373 1.7701,1.35328 0.68614,0.31066 1.43374,0.45929 2.18581,0.43582 0.75207,-0.0223 1.48849,-0.21791 2.1534,-0.56992 6.98318,-3.60502 14.15858,-6.82338 21.49489,-9.63834 0.36877,-0.14415 0.68725,-0.39447 0.91299,-0.71966 0.22573,-0.32519 0.34977,-0.70961 0.35647,-1.10631 0.006,-0.3956 -0.10616,-0.78448 -0.32295,-1.11638 -0.21567,-0.33189 -0.52522,-0.59115 -0.88952,-0.74648 z"
     fill="#01b699"
     id="path20"
     style="stroke-width:1.11749" />
  <defs
     id="defs21">
    <linearGradient
       id="paint0_linear_30_133"
       x1="181.049"
       y1="237.17"
       x2="181.049"
       y2="108.322"
       gradientUnits="userSpaceOnUse"
       gradientTransform="translate(-76,-87)">
      <stop
         stop-color="#D2EBFF"
         id="stop20" />
      <stop
         offset="1"
         stop-color="#F0FFFD"
         id="stop21" />
    </linearGradient>
  </defs>
</svg>
